<?xml version="1.0" encoding="UTF-8" standalone="no"?>
<svg
   width="96.658943"
   height="19.9408"
   viewBox="0 0 96.658943 19.9408"
   fill="none"
   version="1.1"
   id="svg25"
   xmlns="http://www.w3.org/2000/svg"
   >
  <defs
     id="defs25" />
  <path
     d="m 33.2558,0 c -1.0205,0 -1.8509,0.81854 -1.8509,1.82446 0,1.00591 0.8304,1.82445 1.8509,1.82445 1.0205,0 1.8509,-0.81854 1.8509,-1.82445 C 35.1067,0.81854 34.2763,0 33.2558,0 Z"
     fill="#e91c11"
     id="path7" />
  <path
     d="m 33.2559,5.96652 c -0.8204,0 -1.4907,0.66075 -1.4907,1.46943 0,0.80867 0.6703,1.46942 1.4907,1.46942 0.8204,0 1.4907,-0.66075 1.4907,-1.46942 0,-0.80868 -0.6703,-1.46943 -1.4907,-1.46943 z"
     fill="#e91c11"
     id="path8" />
  <path
     d="m 33.3259,12.2188 c -0.6203,0 -1.1206,0.4931 -1.1206,1.1046 0,0.6114 0.5003,1.1045 1.1206,1.1045 0.6203,0 1.1205,-0.4931 1.1205,-1.1045 0,-0.6115 -0.5002,-1.1046 -1.1205,-1.1046 z"
     fill="#e91c11"
     id="path9" />
  <path
     d="M 29.7328,7.94176 C 30.124,7.01084 29.6755,5.94359 28.7311,5.55799 27.7867,5.17239 26.704,5.61446 26.3128,6.54538 c -0.3912,0.93092 0.0573,1.99817 1.0017,2.38377 0.9444,0.3856 2.0271,-0.05647 2.4183,-0.98739 z"
     fill="#e91c11"
     id="path10" />
  <path
     d="m 28.0234,11.4005 c -0.8204,0 -1.4907,0.6607 -1.4907,1.4694 0,0.8087 0.6703,1.4694 1.4907,1.4694 0.8204,0 1.4907,-0.6607 1.4907,-1.4694 0,-0.8087 -0.6703,-1.4694 -1.4907,-1.4694 z"
     fill="#18181b"
     id="path11" />
  <path
     d="m 28.0235,17.3374 c -0.6403,0 -1.1606,0.5128 -1.1606,1.1439 0,0.6312 0.5203,1.144 1.1606,1.144 0.6403,0 1.1605,-0.5128 1.1605,-1.144 0,-0.6311 -0.5202,-1.1439 -1.1605,-1.1439 z"
     fill="#18181b"
     id="path12" />
  <path
     d="m 22.7808,10.858 c -1.0205,0 -1.8509,0.8185 -1.8509,1.8245 0,1.0059 0.8304,1.8244 1.8509,1.8244 1.0205,0 1.8509,-0.8185 1.8509,-1.8244 0,-1.006 -0.8304,-1.8245 -1.8509,-1.8245 z"
     fill="#e91c11"
     id="path13" />
  <path
     d="m 22.7809,16.8245 c -0.8204,0 -1.4907,0.6608 -1.4907,1.4694 0,0.8087 0.6703,1.4695 1.4907,1.4695 0.8204,0 1.4907,-0.6608 1.4907,-1.4695 0,-0.8086 -0.6703,-1.4694 -1.4907,-1.4694 z"
     fill="#18181b"
     id="path14" />
  <path
     d="m 17.5483,16.2919 c -1.0205,0 -1.8509,0.8186 -1.8509,1.8245 0,1.0059 0.8304,1.8244 1.8509,1.8244 1.0205,0 1.8509,-0.8185 1.8509,-1.8244 0,-1.0059 -0.8304,-1.8245 -1.8509,-1.8245 z"
     fill="#e91c11"
     id="path15" />
  <path
     d="M 1.85088,0 C 0.830397,0 0,0.81854 0,1.82446 0,2.83037 0.830397,3.64891 1.85088,3.64891 2.87137,3.64891 3.70177,2.83037 3.70177,1.82446 3.70177,0.81854 2.87137,0 1.85088,0 Z"
     fill="#e91c11"
     id="path16" />
  <path
     d="m 1.85099,5.96652 c -0.82039,0 -1.490711,0.66075 -1.490711,1.46943 0,0.80867 0.670321,1.46942 1.490711,1.46942 0.82039,0 1.49071,-0.66075 1.49071,-1.46942 0,-0.80868 -0.67032,-1.46943 -1.49071,-1.46943 z"
     fill="#e91c11"
     id="path17" />
  <path
     d="m 1.85083,11.9034 c -0.64031,0 -1.160559,0.5128 -1.160559,1.144 0,0.6312 0.520249,1.144 1.160559,1.144 0.6403,0 1.16055,-0.5128 1.16055,-1.144 0,-0.6312 -0.52025,-1.144 -1.16055,-1.144 z"
     fill="#e91c11"
     id="path18" />
  <path
     d="m 7.08336,5.43393 c -1.02048,0 -1.85088,0.81854 -1.85088,1.82446 0,1.00592 0.8304,1.82446 1.85088,1.82446 1.02049,0 1.85089,-0.81854 1.85089,-1.82446 0,-1.00592 -0.8304,-1.82446 -1.85089,-1.82446 z"
     fill="#e91c11"
     id="path19" />
  <path
     d="m 7.08347,11.4005 c -0.82039,0 -1.49071,0.6607 -1.49071,1.4694 0,0.8087 0.67032,1.4694 1.49071,1.4694 0.82039,0 1.49071,-0.6607 1.49071,-1.4694 0,-0.8087 -0.67032,-1.4694 -1.49071,-1.4694 z"
     fill="#18181b"
     id="path20" />
  <path
     d="m 7.0833,17.3374 c -0.6403,0 -1.16055,0.5128 -1.16055,1.1439 0,0.6312 0.52025,1.144 1.16055,1.144 0.64031,0 1.16056,-0.5128 1.16056,-1.144 0,-0.6311 -0.52025,-1.1439 -1.16056,-1.1439 z"
     fill="#18181b"
     id="path21" />
  <path
     d="m 12.3158,10.858 c -1.0204,0 -1.8508,0.8185 -1.8508,1.8245 0,1.0059 0.8304,1.8244 1.8508,1.8244 1.0205,0 1.8509,-0.8185 1.8509,-1.8244 0,-1.006 -0.8304,-1.8245 -1.8509,-1.8245 z"
     fill="#e91c11"
     id="path22" />
  <path
     d="m 12.316,16.8245 c -0.8204,0 -1.4908,0.6608 -1.4908,1.4694 0,0.8087 0.6704,1.4695 1.4908,1.4695 0.8203,0 1.4907,-0.6608 1.4907,-1.4695 0,-0.8086 -0.6704,-1.4694 -1.4907,-1.4694 z"
     fill="#18181b"
     id="path23" />
  <path
     d="m 1.85083,17.3865 c -0.64031,0 -1.160559,0.5128 -1.160559,1.144 0,0.6311 0.520249,1.1439 1.160559,1.1439 0.6403,0 1.16055,-0.5128 1.16055,-1.1439 0,-0.6312 -0.52025,-1.144 -1.16055,-1.144 z"
     fill="#e91c11"
     id="path24" />
  <path
     d="m 33.3259,17.4951 c -0.6203,0 -1.1206,0.4931 -1.1206,1.1045 0,0.6114 0.5003,1.1045 1.1206,1.1045 0.6203,0 1.1205,-0.4931 1.1205,-1.1045 0,-0.6114 -0.5002,-1.1045 -1.1205,-1.1045 z"
     fill="#e91c11"
     id="path25" />
  <path
     style="font-size:21.2587px;font-family:'FONTSPRING DEMO - Rotunda Reg-Bold';-inkscape-font-specification:'FONTSPRING DEMO - Rotunda Reg-Bold';fill:#000000;stroke:#000000;stroke-width:0;stroke-linecap:round;stroke-linejoin:round;paint-order:fill markers stroke"
     d="m 42.130336,15.661714 h 2.062094 v -5.463486 c 0,-1.5944026 0.786572,-3.6564964 3.018735,-3.6564964 1.381815,0 2.529785,0.914124 2.529785,2.6998548 v 6.4201276 h 2.062094 v -5.463486 c 0,-1.5944026 0.786572,-3.6564964 3.018735,-3.6564964 1.381816,0 2.529786,0.914124 2.529786,2.6998548 v 6.4201276 h 2.062093 V 9.1565516 c 0,-2.8486657 -1.721954,-4.5068443 -4.166705,-4.5068443 -1.78573,0 -2.891183,0.7015371 -3.890342,2.2321634 -0.680278,-1.4243328 -2.019576,-2.2321634 -3.720272,-2.2321634 -1.785731,0 -2.869924,0.7440545 -3.486427,1.8707656 V 4.9048117 h -2.019576 z m 23.597171,-1.488109 c -1.062935,0 -1.806989,-0.616503 -1.806989,-1.488109 0,-0.82909 0.531467,-1.296781 1.828248,-1.551885 l 3.082511,-0.595244 v 0.680278 c 0,1.509368 -1.360557,2.95496 -3.10377,2.95496 z m 5.080829,-5.3784513 c 0,-2.5510439 -1.700696,-4.1454464 -4.379292,-4.1454464 -1.764472,0 -3.188805,0.6165023 -4.25174,1.8495069 l 1.062935,1.3605567 c 0.765313,-0.8716067 1.870766,-1.3818154 2.997477,-1.3818154 1.573144,0 2.508526,0.8290892 2.508526,2.2321634 v 0.212587 l -3.358874,0.6590197 c -2.29594,0.4464324 -3.486427,1.5518854 -3.486427,3.2313224 0,1.785731 1.488109,3.10377 3.486427,3.10377 1.488109,0 2.742372,-0.637761 3.507685,-1.913283 v 1.658179 h 1.913283 z m 3.316366,-3.890342 V 15.661714 h 2.062093 v -5.463486 c 0,-1.5944026 0.786572,-3.6564964 3.018736,-3.6564964 1.381815,0 2.529785,0.914124 2.529785,2.6998548 V 15.661714 H 83.79741 V 9.1565516 c 0,-2.8486657 -1.721955,-4.5068443 -4.166705,-4.5068443 -1.785731,0 -2.869925,0.7440545 -3.486427,1.8707656 V 4.9048117 Z m 12.861531,6.5051623 c 0,2.848665 1.721955,4.506844 4.166705,4.506844 1.785731,0 2.869924,-0.744054 3.486427,-1.870766 v 1.615662 h 2.019576 V 4.9048117 h -2.062094 v 5.4634853 c 0,1.594403 -0.786572,3.656497 -3.018735,3.656497 -1.381815,0 -2.529785,-0.914124 -2.529785,-2.699855 V 4.9048117 h -2.062094 z"
     id="text25"
     aria-label="manu" />
</svg>
